<svg width="49" height="36" xmlns="http://www.w3.org/2000/svg">

 <g>
  <title>background</title>
  <rect fill="none" id="canvas_background" height="38" width="51" y="-1" x="-1"/>
 </g>
 <g>
  <title>Layer 1</title>
  <g stroke="null" id="svg_6">
   <path stroke="null" fill="#ffffff" id="svg_1" d="m35.8033,18.40165c0,-1.09331 -0.10257,-2.18765 -0.30568,-3.2501c-0.09163,-0.48092 -0.5128,-0.82848 -1.00168,-0.82848l-16.02631,0c-0.56358,0 -1.01963,0.45605 -1.01963,1.01963l0,6.11777c0,0.56358 0.45605,1.01963 1.01963,1.01963l8.22276,0c-0.51233,1.03717 -1.21839,1.93709 -2.04748,2.6942l5.76294,5.76294c3.3159,-3.15915 5.39546,-7.60472 5.39546,-12.53558z"/>
   <path fill="#ffffff" stroke="null" id="svg_2" d="m18.40165,9.15702c2.00044,0 3.90327,0.6353 5.50239,1.83812c0.40425,0.30371 0.97483,0.26687 1.33327,-0.09462l4.35136,-4.35136c0.20216,-0.20216 0.31065,-0.47997 0.29773,-0.76574s-0.14438,-0.55264 -0.36346,-0.73685c-3.1136,-2.6097 -7.06371,-4.04656 -11.12129,-4.04656c-5.97155,0 -11.24704,3.03536 -14.36567,7.64395l5.98508,5.98508c1.42789,-3.21631 4.64053,-5.472 8.38059,-5.472z"/>
   <path fill="#ffffff" stroke="null" id="svg_3" d="m18.40165,35.8033c3.89246,0 7.4768,-1.30512 10.37315,-3.47945l-5.87109,-5.87109c-1.34197,0.75561 -2.87576,1.19351 -4.50206,1.19351c-3.74006,0 -6.95271,-2.25569 -8.38059,-5.472l-5.98508,5.98508c3.11863,4.60858 8.39412,7.64395 14.36567,7.64395z"/>
   <path fill="#ffffff" stroke="null" id="svg_4" d="m9.30548,19.87025c-0.0781,-0.4812 -0.14846,-0.96579 -0.14846,-1.4686s0.07035,-0.98741 0.14846,-1.4686l-6.3981,-6.3981c-1.2105,2.36418 -1.90738,5.03322 -1.90738,7.8667s0.69688,5.50252 1.90745,7.86663l6.39803,-6.39803z"/>
   <text stroke="#ffffff" transform="matrix(0.44530458069253337,0,0,0.30982568157394685,-223.25336567999636,-75.64010744280642) " xml:space="preserve" text-anchor="start" font-family="'Shadows Into Light', serif" font-size="24" id="svg_5" y="319.82126" x="582.10432" stroke-width="2" fill="none">AP</text>
  </g>
 </g>
</svg>